<svg xmlns="http://www.w3.org/2000/svg" viewBox="0 0 64 64"><g id="_07-sun" data-name="07-sun"><path d="M26,25a3,3,0,0,1-3,3A2.938,2.938,0,0,1,26,25Z" style="fill:#ff9500"/><path d="M23,28a3,3,0,1,1,3-3A2.938,2.938,0,0,0,23,28Z" style="fill:#fff"/><path d="M21,31H35a7,7,0,0,1-2.52,5.38A6.373,6.373,0,0,0,28,35a6.373,6.373,0,0,0-4.48,1.38A7,7,0,0,1,21,31Z" style="fill:#ffb0b0"/><path d="M28,35a6.373,6.373,0,0,1,4.48,1.38,7,7,0,0,1-8.96,0A6.373,6.373,0,0,1,28,35Z" style="fill:#ff7d81"/><circle cx="55.001" cy="55" r="5" style="fill:#ff7d81"/><path d="M55,57a4.985,4.985,0,0,1-4.745-3.5A4.936,4.936,0,0,0,50,55a5,5,0,1,0,9.746-1.5A4.986,4.986,0,0,1,55,57Z" style="fill:#ff475a"/><path d="M63,55a8,8,0,1,1-12-6.92V25a3.99,3.99,0,0,1,3.83-3.99A.97.97,0,0,1,55,21a4,4,0,0,1,4,4V48.08A7.981,7.981,0,0,1,63,55Zm-8,5a5,5,0,1,0-5-5A5,5,0,0,0,55,60Z" style="fill:#e1f1fa"/><path d="M54.921,19.65a1.988,1.988,0,0,1-.09,1.35v.01A3.99,3.99,0,0,0,51,25V38.57c-1.95.52-4.04.96-4.84,2.02-1.57,2.05.63,7.76-1.53,9.25-2.13,1.48-7.13-2.26-9.69-1.47-2.47.77-4.2,6.63-6.94,6.63s-4.47-5.86-6.94-6.63c-2.56-.79-7.56,2.95-9.69,1.47-2.16-1.49.04-7.2-1.53-9.25-1.55-2.04-7.93-1.8-8.76-4.24-.8-2.36,4.48-5.74,4.48-8.35s-5.28-5.99-4.48-8.35c.83-2.44,7.21-2.2,8.76-4.24,1.57-2.05-.63-7.76,1.53-9.25,2.13-1.48,7.13,2.26,9.69,1.47C23.531,6.86,25.261,1,28,1s4.47,5.86,6.94,6.63c2.56.79,7.56-2.95,9.69-1.47,2.16,1.49-.04,7.2,1.53,9.25C47.711,17.45,54.091,17.21,54.921,19.65ZM45,28A17,17,0,1,0,28,45,17,17,0,0,0,45,28Z" style="fill:#ffa426"/><path d="M38.941,7.63c1.486.458,3.792-.606,5.883-1.293a1.621,1.621,0,0,0-.193-.177c-1.4-.974-4.045.31-6.42,1.078A2.587,2.587,0,0,0,38.941,7.63Z" style="fill:#ff9500"/><path d="M49,28A16.921,16.921,0,0,0,30,11.128a16.989,16.989,0,0,1,0,33.744A16.921,16.921,0,0,0,49,28Z" style="fill:#ff9500"/><path d="M25.061,7.63c1.815-.566,3.231-3.871,4.94-5.59A2.916,2.916,0,0,0,28,1c-2.461,0-4.109,4.719-6.21,6.238A5.878,5.878,0,0,0,25.061,7.63Z" style="fill:#ff9500"/><path d="M25.061,48.37a5.878,5.878,0,0,0-3.27.392C23.892,50.281,25.54,55,28,55a2.916,2.916,0,0,0,2-1.04C28.292,52.241,26.876,48.936,25.061,48.37Z" style="fill:#ff9500"/><path d="M13.841,40.59c-1.55-2.04-7.93-1.8-8.76-4.24-.8-2.36,4.48-5.74,4.48-8.35s-5.28-5.99-4.48-8.35c.83-2.44,7.21-2.2,8.76-4.24,1.517-1.981-.473-7.366,1.338-9.073-1.513-.5-2.914-.8-3.808-.177-2.16,1.49.04,7.2-1.53,9.25-1.55,2.04-7.93,1.8-8.76,4.24-.8,2.36,4.48,5.74,4.48,8.35s-5.28,5.99-4.48,8.35c.83,2.44,7.21,2.2,8.76,4.24,1.57,2.05-.63,7.76,1.53,9.25.894.621,2.3.32,3.808-.177C13.368,47.956,15.358,42.571,13.841,40.59Z" style="fill:#ff9500"/><path d="M38.941,48.37a2.587,2.587,0,0,0-.73.392c2.375.768,5.018,2.052,6.42,1.078a1.621,1.621,0,0,0,.193-.177C42.733,48.976,40.427,47.911,38.941,48.37Z" style="fill:#ff9500"/><path d="M23,28a3,3,0,1,0-3-3A3,3,0,0,0,23,28Zm9.48,8.38A7,7,0,0,0,35,31H21a7,7,0,0,0,11.48,5.38ZM28,11A17,17,0,1,1,11,28,17,17,0,0,1,28,11Z" style="fill:#f5cd62"/><path d="M39.424,24.311A11.966,11.966,0,0,0,28,16V14a13.96,13.96,0,0,1,13.326,9.7Z" style="fill:#f5e3a7"/><path d="M42,28H40a12.116,12.116,0,0,0-.141-1.848l1.977-.3A14.168,14.168,0,0,1,42,28Z" style="fill:#f5e3a7"/><path d="M37,27H31a1,1,0,0,1-.707-1.707l5-5,1.414,1.414L33.415,25H37Z" style="fill:#ff9500"/><path d="M54,15H52c0-.562-.217-.8-.707-1.293a3.48,3.48,0,0,1,0-5.414C51.784,7.8,52,7.562,52,7s-.217-.8-.707-1.293A3.563,3.563,0,0,1,50,3h2c0,.562.217.8.707,1.293A3.563,3.563,0,0,1,54,7a3.563,3.563,0,0,1-1.293,2.707C52.218,10.2,52,10.438,52,11s.217.8.707,1.293A3.563,3.563,0,0,1,54,15Z" style="fill:#ffb0b0"/><path d="M59,15H57c0-.562-.217-.8-.707-1.293a3.48,3.48,0,0,1,0-5.414C56.784,7.8,57,7.562,57,7s-.217-.8-.707-1.293A3.563,3.563,0,0,1,55,3h2c0,.562.217.8.707,1.293A3.563,3.563,0,0,1,59,7a3.563,3.563,0,0,1-1.293,2.707C57.218,10.2,57,10.438,57,11s.217.8.707,1.293A3.563,3.563,0,0,1,59,15Z" style="fill:#ff7d81"/><path d="M15,28A16.993,16.993,0,0,1,30,11.128a17,17,0,1,0,0,33.744A16.993,16.993,0,0,1,15,28Z" style="fill:#ffc247"/><path d="M55,25h0a2,2,0,0,1,2,2V53a0,0,0,0,1,0,0H53a0,0,0,0,1,0,0V27A2,2,0,0,1,55,25Z" style="fill:#ff7d81"/><rect x="55.001" y="44" width="4" height="2" style="fill:#b4c2cb"/><rect x="55.001" y="40" width="4" height="2" style="fill:#b4c2cb"/><rect x="55.001" y="36" width="4" height="2" style="fill:#b4c2cb"/><rect x="55.001" y="32" width="4" height="2" style="fill:#b4c2cb"/><rect x="55.001" y="28" width="4" height="2" style="fill:#b4c2cb"/></g></svg>